<svg width="256" height="256" viewBox="0 0 256 256" fill="none" xmlns="http://www.w3.org/2000/svg">
<circle cx="128" cy="128" r="128" fill="#3F6C4B"/>
<g clip-path="url(#clip0_1514_1330)">
<path d="M128 42.666C102.142 61.847 85.333 92.9431 85.333 128.011C85.333 163.079 102.142 194.151 128 213.333C153.857 194.128 170.666 163.056 170.666 128.011C170.666 92.9666 153.857 61.8704 128 42.666ZM131.972 192.539L131.926 192.586C131.926 192.586 131.835 192.68 131.812 192.75C131.697 192.89 131.605 193.03 131.49 193.171C131.49 193.171 131.444 193.194 131.444 193.217C131.444 193.241 131.398 193.264 131.375 193.287C131.329 193.334 131.283 193.357 131.238 193.404C131.192 193.451 131.123 193.521 131.077 193.567C131.008 193.614 130.939 193.684 130.87 193.731C130.824 193.755 130.778 193.801 130.732 193.825C130.709 193.825 130.686 193.871 130.64 193.895C130.572 193.942 130.503 193.965 130.457 194.012C130.388 194.058 130.319 194.105 130.25 194.151C130.227 194.151 130.181 194.175 130.158 194.198C130.113 194.198 130.089 194.245 130.043 194.268C130.02 194.268 129.975 194.268 129.952 194.292C129.883 194.315 129.814 194.339 129.745 194.362C129.653 194.385 129.584 194.432 129.492 194.455C129.4 194.479 129.309 194.502 129.217 194.526C129.194 194.526 129.171 194.526 129.125 194.549C129.125 194.549 129.125 194.549 129.102 194.549H129.056C129.01 194.549 128.964 194.549 128.918 194.572C128.872 194.572 128.827 194.572 128.78 194.596C128.574 194.619 128.367 194.642 128.161 194.642C128.114 194.642 128.068 194.642 128.046 194.642C128 194.642 127.954 194.642 127.931 194.642C127.724 194.642 127.517 194.642 127.311 194.596C127.265 194.596 127.219 194.596 127.173 194.572C127.127 194.572 127.081 194.572 127.035 194.549H126.989C126.989 194.549 126.989 194.549 126.966 194.549C126.943 194.549 126.92 194.549 126.874 194.526C126.783 194.502 126.691 194.479 126.599 194.455C126.507 194.432 126.438 194.385 126.346 194.362C126.277 194.339 126.208 194.315 126.14 194.292C126.117 194.292 126.071 194.292 126.048 194.268C126.002 194.268 125.979 194.222 125.933 194.198C125.91 194.198 125.864 194.175 125.841 194.151C125.772 194.105 125.703 194.058 125.634 194.012C125.565 193.965 125.497 193.942 125.451 193.895C125.428 193.895 125.405 193.848 125.359 193.825C125.313 193.801 125.267 193.755 125.221 193.731C125.152 193.684 125.083 193.614 125.014 193.567C124.946 193.521 124.9 193.474 124.831 193.404C124.785 193.357 124.739 193.334 124.693 193.287C124.693 193.264 124.647 193.241 124.624 193.217C124.624 193.217 124.578 193.194 124.578 193.171C124.463 193.03 124.371 192.89 124.257 192.75C124.211 192.703 124.165 192.656 124.142 192.586L124.096 192.539L97.5727 152.519C96.2637 150.533 96.3786 147.8 98.0779 146.141C100.259 144.061 103.658 144.505 105.243 146.935L117.574 165.532L104.278 107.942C103.681 105.372 105.266 102.779 107.792 102.172C110.318 101.564 112.867 103.176 113.464 105.746L123.315 148.477V80.5608C123.315 78.0376 125.083 75.7714 127.54 75.5144C130.365 75.234 132.753 77.4769 132.753 80.2804V148.454L142.559 106.003C143.133 103.55 145.36 101.751 147.817 102.078C150.642 102.452 152.456 105.209 151.813 107.942L138.517 165.532L150.688 147.169C152.066 145.089 154.798 144.202 156.98 145.393C159.483 146.771 160.218 149.972 158.679 152.309L132.018 192.539H131.972Z" fill="#F9EACD"/>
</g>
<defs>
<clipPath id="clip0_1514_1330">
<rect width="85.3333" height="170.667" fill="white" transform="translate(85.333 42.666)"/>
</clipPath>
</defs>
</svg>
