<svg width="190" height="190" viewBox="0 0 190 190" fill="none" xmlns="http://www.w3.org/2000/svg">
<path d="M100.171 5.0477C95.3968 4.82278 91.1559 8.20514 90.2622 12.8781C89.3916 17.5521 92.3033 21.2569 97.0775 21.4818C101.828 21.7057 106.116 18.3255 106.986 13.6514C107.88 8.9785 104.922 5.27153 100.171 5.0477ZM86.9269 5.28938L85.0903 5.57939L85.2352 11.3313L80.885 12.0564L76.6798 6.98112L74.4564 7.31948L78.7583 12.4913C76.4131 13.3909 74.8472 15.6647 74.8914 18.2433C74.9496 21.1958 77.2061 23.075 80.16 22.5935L87.2654 21.4818L86.9269 5.28938ZM99.7359 7.27113C103.421 7.44475 105.75 10.1246 105.101 13.5548C104.452 16.985 101.173 19.4331 97.4641 19.2584C93.7793 19.0848 91.4978 16.405 92.1472 12.9748C92.7966 9.54454 96.0279 7.09643 99.7359 7.27113ZM117.33 8.5762C114.022 8.87231 110.993 10.9182 109.596 14.0865C107.757 18.3171 109.721 22.4497 114.188 23.7053L120.134 25.3487L126.611 10.558L120.665 8.91455C119.548 8.60065 118.433 8.47749 117.33 8.5762ZM65.756 10.3163C64.7225 10.2879 63.6223 10.505 62.5175 10.9446C58.0767 12.7119 55.6008 17.5336 56.7172 22.1586C57.8551 26.7747 62.0403 28.9527 66.481 27.1854C70.9001 25.4268 73.4192 20.5878 72.2813 15.9715C71.444 12.503 68.8567 10.4015 65.756 10.3163ZM117.233 10.6546C118.077 10.5937 118.984 10.6546 119.844 10.8963L124 12.1047L119.263 22.8352L115.106 21.6752C111.645 20.7021 110.111 17.6929 111.433 14.6182C112.458 12.3215 114.704 10.8374 117.233 10.6546ZM65.5626 12.6364C67.9542 12.6457 69.922 14.1042 70.5412 16.6482C71.3668 20.0404 69.3983 23.6377 65.9493 25.0104C62.5218 26.3744 59.2829 24.874 58.4573 21.4818C57.6318 18.0897 59.6001 14.4923 63.0492 13.1197C63.906 12.7787 64.7654 12.6334 65.5626 12.6364ZM132.121 12.9748L122.55 26.0254L124.194 26.8954L131.541 16.7449L131.831 16.89L132.459 31.294L134.344 32.309L143.867 19.2584L142.271 18.3883L134.876 28.5389L134.586 28.3938L134.006 13.9898L132.121 12.9748ZM85.2836 13.5548L85.3802 19.5484L80.16 20.4185C78.1907 20.7395 76.7562 19.7118 76.7282 17.9533C76.6735 16.1756 78.0457 14.6975 80.015 14.3765L85.2836 13.5548ZM148.555 22.8835L137.196 34.3874L138.695 35.4992L150.053 23.9952L148.555 22.8835ZM153.678 26.6054L140.725 36.3209L142.706 38.2543L153.872 36.1758L154.21 36.5142L150.15 45.7947L152.083 47.728L164.989 38.0126L163.733 36.7558L153.581 44.2962L153.292 44.0063L157.401 35.0158L155.999 33.5657L145.123 35.7892L144.833 35.4992L154.984 27.9105L153.678 26.6054ZM25.7824 37.0943L24.719 38.5926L34.0961 47.0997L33.8544 47.4864L24.2356 45.118L23.1239 46.7614L27.3292 57.0085L27.0874 57.3952L17.7103 48.8398L16.6953 50.3382L28.6825 61.2621L30.2293 58.942L26.0724 48.3564L26.314 47.9698L36.2229 50.1932L37.7213 47.9698L25.7824 37.0943ZM173.447 50.8216L158.028 55.7518L158.85 57.3952L170.789 53.5283L170.934 53.8184L162.911 65.854L163.829 67.7874L179.248 62.8571L178.426 61.2137L166.487 65.0322L166.342 64.7422L174.366 52.755L173.447 50.8216ZM13.5052 56.1385L12.8285 58.0719L15.6803 61.4071L12.7318 69.4792L8.76823 69.1891L8.13987 71.0259L24.6223 72.476L25.5891 69.8658L13.5052 56.1385ZM17.3237 63.2921L22.8339 69.7208L22.6406 70.2041L15.0035 69.6724L17.3237 63.2921ZM180.891 68.5607L164.893 71.1226L165.424 72.8626L181.423 70.3491L180.891 68.5607ZM6.97981 75.4244L6.15811 81.5631C5.53997 86.1619 8.43341 90.5575 12.8768 91.8102C17.3232 93.0399 21.1041 90.5121 21.7222 85.9132L22.5439 79.823L6.97981 75.4244ZM8.86491 77.8412L20.1754 81.0314L19.5954 85.2849C19.1164 88.849 16.3479 90.804 13.1184 89.9251C9.89516 89.0003 7.80893 85.6842 8.28488 82.1431L8.86491 77.8412ZM168.228 83.2065L168.904 94.372L185 95.677L184.371 84.4149L182.148 84.2215L182.728 93.6953L177.895 93.3086L177.363 84.7048L175.236 84.5115L175.72 93.1153L170.982 92.7285L170.451 83.3998L168.228 83.2065ZM4.99805 94.3237L5.62642 105.586L7.84985 105.779L7.26982 96.3054L12.1034 96.6921L12.6351 105.295L14.7618 105.49L14.2785 96.8854L19.0154 97.2722L19.5471 106.601L21.7705 106.795L21.0938 95.6287L4.99805 94.3237ZM173.98 97.9488C171.005 98.3512 168.739 100.639 168.276 104.087L167.454 110.178L183.018 114.576L183.84 108.437C184.458 103.839 181.564 99.4432 177.122 98.1905C176.01 97.8831 174.971 97.8147 173.98 97.9488ZM174.559 99.9301C175.282 99.8142 176.072 99.8559 176.88 100.076C180.103 101 182.189 104.317 181.713 107.858L181.133 112.16L169.822 108.97L170.403 104.716C170.762 102.043 172.389 100.28 174.559 99.9301ZM24.574 117.138L8.57489 119.651L9.10659 121.44L25.1056 118.878L24.574 117.138ZM165.376 117.525L164.409 120.135L176.493 133.862L177.17 131.929L174.318 128.594L177.266 120.521L181.23 120.812L181.858 118.975L165.376 117.525ZM167.358 119.797L174.995 120.328L172.675 126.709L167.164 120.28L167.358 119.797ZM26.1691 122.214L10.75 127.143L11.5717 128.787L23.5106 124.968L23.6556 125.259L15.6319 137.245L16.5502 139.179L31.9694 134.249L31.1476 132.605L19.2088 136.473L19.0637 136.183L27.0874 124.147L26.1691 122.214ZM161.315 128.739L159.769 131.059L163.926 141.644L163.684 142.031L153.776 139.808L152.277 142.031L164.216 152.907L165.279 151.408L155.901 142.901L156.144 142.514L165.762 144.882L166.874 143.239L162.669 132.993L162.911 132.605L172.287 141.161L173.302 139.663L161.315 128.739ZM37.9146 142.273L25.0091 151.988L26.2657 153.245L36.4162 145.704L36.7062 145.994L32.5977 154.985L33.9994 156.435L44.8749 154.212L45.165 154.501L35.0145 162.09L36.3196 163.395L49.2736 153.679L47.2917 151.747L36.1262 153.825L35.7879 153.486L39.8481 144.206L37.9146 142.273ZM51.3036 154.501L39.9448 166.006L41.4431 167.117L52.802 155.613L51.3036 154.501ZM55.6539 157.692L46.1317 170.742L47.7267 171.613L55.1221 161.462L55.4121 161.607L55.9922 176.011L57.8773 177.026L67.4477 163.975L65.8043 163.105L58.4573 173.255L58.1673 173.111L57.5389 158.707L55.6539 157.692ZM126.756 162.187C125.721 162.159 124.627 162.373 123.517 162.816C119.098 164.574 116.579 169.413 117.717 174.029C118.833 178.654 123.062 180.815 127.481 179.056C131.921 177.288 134.398 172.467 133.281 167.842C132.428 164.38 129.86 162.27 126.756 162.187ZM126.562 164.507C128.953 164.517 130.922 165.975 131.541 168.519C132.366 171.911 130.398 175.508 126.949 176.881C123.521 178.245 120.283 176.744 119.457 173.352C118.632 169.961 120.6 166.363 124.048 164.991C124.906 164.65 125.765 164.504 126.562 164.507ZM69.8645 164.652L63.3875 179.443L69.3328 181.086C73.7999 182.341 78.5396 180.139 80.4017 175.915C82.2415 171.684 80.2769 167.551 75.8098 166.296L69.8645 164.652ZM70.7345 167.166L74.8914 168.326C78.3534 169.298 79.887 172.307 78.5649 175.382C77.1981 178.444 73.5942 180.072 70.1545 179.105L65.9977 177.896L70.7345 167.166ZM109.839 167.407L102.733 168.519L103.071 184.712L104.908 184.421L104.763 178.669L109.113 177.945L113.319 183.019L115.542 182.681L111.24 177.509C113.585 176.61 115.151 174.336 115.106 171.757C115.048 168.805 112.792 166.925 109.839 167.407ZM92.9206 168.519C88.1696 168.295 83.8824 171.676 83.0118 176.349C82.118 181.023 85.0762 184.729 89.8271 184.953C94.6013 185.178 98.8422 181.795 99.7359 177.123C100.607 172.448 97.6947 168.744 92.9206 168.519ZM109.839 169.582C111.808 169.261 113.242 170.289 113.27 172.047C113.324 173.825 111.953 175.303 109.983 175.624L104.715 176.446L104.618 170.453L109.839 169.582ZM92.534 170.742C96.2188 170.916 98.5002 173.596 97.8508 177.026C97.2015 180.456 93.9702 182.904 90.2622 182.73C86.5773 182.556 84.2475 179.876 84.8969 176.446C85.5463 173.016 88.8259 170.568 92.534 170.742Z" fill="#F9EACD"/>
</svg>
